<?xml version="1.0" standalone="no"?>
<!DOCTYPE svg PUBLIC "-//W3C//DTD SVG 20010904//EN"
 "http://www.w3.org/TR/2001/REC-SVG-20010904/DTD/svg10.dtd">
<svg version="1.0" xmlns="http://www.w3.org/2000/svg"
 width="728.000000pt" height="508.000000pt" viewBox="0 0 728.000000 508.000000"
 preserveAspectRatio="xMidYMid meet">

<g transform="translate(0.000000,508.000000) scale(0.100000,-0.100000)"
fill="#000000" stroke="none">
<path d="M4901 3987 c-6 -8 -14 -28 -17 -46 -6 -27 -11 -32 -28 -27 -12 2 -75
10 -140 17 -293 29 -437 -29 -412 -166 15 -76 73 -115 305 -204 74 -28 149
-62 166 -76 36 -27 127 -172 123 -195 -3 -16 -101 -70 -128 -70 -11 0 -21 15
-29 43 -22 72 -81 175 -126 216 -81 74 -150 75 -259 2 -66 -44 -51 -45 -168 8
-111 50 -366 88 -518 76 -236 -18 -374 -83 -590 -275 -67 -61 -128 -110 -134
-111 -6 0 -90 0 -186 1 -204 1 -172 -11 -384 144 -160 117 -312 198 -424 227
-128 32 -516 23 -651 -17 -96 -28 -133 -88 -94 -155 20 -33 59 -54 123 -64 95
-16 164 -59 306 -190 166 -154 164 -153 434 -256 41 -16 128 -43 194 -59 249
-65 318 -105 452 -268 115 -138 142 -177 150 -218 l6 -31 -59 -7 c-32 -4 -70
-9 -84 -12 -22 -4 -28 0 -39 28 -25 61 -110 176 -179 241 -162 153 -357 229
-586 228 -395 0 -727 -266 -826 -661 -20 -79 -17 -296 5 -385 36 -147 138
-320 249 -422 167 -152 353 -223 585 -223 329 0 610 179 758 483 22 45 33 60
29 40 -9 -46 13 -110 52 -143 71 -63 74 -63 863 -64 764 0 784 1 795 47 4 12
-1 38 -9 57 -48 117 -72 308 -56 448 28 233 120 428 277 586 195 197 432 296
708 296 122 0 125 1 125 60 l0 49 43 3 42 3 -1 51 c-3 109 -154 364 -313 529
-144 149 -152 160 -162 256 -10 87 -36 159 -71 196 -25 26 -98 32 -117 10z
m83 -84 c16 -34 36 -122 36 -166 1 -60 37 -114 162 -244 127 -132 181 -208
267 -380 46 -93 48 -103 23 -103 -24 0 -59 -37 -67 -72 -6 -25 -10 -26 -98
-33 -51 -4 -126 -13 -167 -22 -492 -99 -850 -535 -850 -1038 0 -87 21 -231 45
-309 8 -27 15 -53 15 -58 0 -13 -1389 -10 -1451 3 -68 15 -99 45 -99 98 0 46
27 79 112 131 78 49 98 70 98 102 0 51 -16 53 -388 40 -227 -7 -373 -8 -447
-2 -194 17 -298 64 -264 118 26 41 151 95 334 142 90 23 504 95 608 106 38 4
75 13 83 21 34 34 8 129 -62 226 -45 62 -172 213 -210 249 -74 69 -208 127
-414 179 -114 29 -365 125 -417 161 -24 16 -83 66 -131 111 -167 156 -238 201
-364 226 -97 21 -101 57 -7 79 77 19 327 35 454 29 204 -9 297 -50 590 -263
77 -55 150 -106 161 -112 26 -14 363 -28 416 -18 27 5 67 35 161 119 247 222
386 275 686 264 177 -7 281 -28 399 -83 87 -41 117 -42 163 -8 51 39 105 64
135 64 62 0 136 -94 174 -222 13 -41 28 -72 40 -78 70 -38 240 38 264 117 9
28 -16 85 -77 179 -62 95 -99 118 -332 201 -102 37 -165 73 -181 106 -14 25
-14 31 0 52 29 45 125 60 286 45 273 -25 252 -25 266 -5 8 11 14 31 14 47 0
36 15 36 34 1z m-2907 -1217 c234 -50 409 -176 527 -377 l27 -47 -48 -7 c-226
-32 -520 -108 -625 -161 -199 -100 -169 -247 61 -301 64 -15 123 -18 374 -18
163 0 297 -3 297 -6 0 -4 -10 -38 -21 -75 -78 -253 -286 -452 -544 -520 -95
-25 -294 -26 -385 -1 -97 25 -237 98 -308 160 -182 158 -274 357 -274 592 0
138 20 223 77 340 108 220 297 367 540 420 81 18 219 18 302 1z m799 -909
c-54 -34 -103 -77 -125 -107 -19 -28 -22 -30 -15 -10 4 14 13 45 19 70 13 49
28 58 100 58 35 1 38 -1 21 -11z"/>
<path d="M3681 3439 c-48 -6 -83 -19 -145 -55 -44 -26 -120 -69 -168 -97 -49
-27 -88 -53 -88 -58 0 -33 71 -2 225 96 129 83 231 100 390 65 126 -27 127
-27 132 -13 13 37 -219 79 -346 62z"/>
<path d="M4239 2343 c-36 -91 -101 -283 -110 -321 -29 -131 2 -382 48 -382 17
0 17 4 -12 135 -29 132 -17 209 71 452 24 68 44 127 44 133 0 22 -31 9 -41
-17z"/>
<path d="M1800 2583 c-89 -16 -221 -81 -300 -148 -106 -89 -189 -223 -221
-355 -19 -80 -17 -241 4 -320 140 -520 795 -675 1150 -272 59 66 82 108 65
118 -7 5 -22 -6 -37 -27 -15 -19 -57 -66 -96 -104 -116 -117 -262 -177 -430
-176 -121 0 -183 14 -282 61 -205 100 -336 301 -350 537 -7 111 12 202 64 312
51 108 168 224 283 280 177 86 387 89 550 6 55 -28 80 -32 80 -11 0 18 -110
70 -191 90 -61 15 -225 20 -289 9z"/>
<path d="M5262 2769 c-260 -24 -504 -180 -639 -409 -61 -104 -87 -172 -107
-280 -86 -450 211 -892 659 -985 280 -57 567 27 765 224 118 117 189 236 232
388 32 113 32 325 0 436 -67 236 -232 437 -449 546 -70 35 -190 70 -261 76
-37 3 -78 7 -92 9 -14 1 -62 -1 -108 -5z m313 -102 c215 -75 357 -192 458
-377 117 -216 122 -494 11 -711 -26 -53 -112 -170 -153 -210 -82 -80 -206
-151 -331 -190 -108 -34 -311 -34 -420 0 -315 98 -525 348 -561 668 -27 248
75 502 269 668 80 68 237 147 337 169 106 24 298 15 390 -17z"/>
<path d="M5180 2571 c-219 -59 -395 -226 -467 -446 -23 -69 -27 -96 -26 -200
0 -101 4 -132 25 -198 75 -225 267 -402 491 -452 77 -17 162 -17 162 0 0 6
-22 13 -50 18 -175 27 -288 76 -389 168 -169 155 -239 376 -191 604 45 216
235 413 455 470 87 23 235 23 320 0 224 -62 409 -253 455 -471 8 -38 15 -88
15 -111 0 -37 3 -43 21 -43 21 0 21 3 15 68 -10 100 -24 148 -69 242 -32 70
-55 101 -126 171 -98 99 -197 155 -318 183 -93 21 -239 19 -323 -3z"/>
</g>
</svg>
